<mxfile host="app.diagrams.net" modified="2023-11-01T13:33:13.165Z" agent="Mozilla/5.0 (Windows NT 10.0; Win64; x64) AppleWebKit/537.36 (KHTML, like Gecko) Chrome/118.0.0.0 Safari/537.36" etag="g81p4Ordl5oXKyjFadLS" version="22.0.8" type="github">
  <diagram name="第 1 页" id="T6O9xjs0IXNBkX-w8Xno">
    <mxGraphModel dx="3860" dy="1166" grid="0" gridSize="10" guides="1" tooltips="1" connect="1" arrows="1" fold="1" page="1" pageScale="1" pageWidth="827" pageHeight="1169" math="0" shadow="0">
      <root>
        <mxCell id="0" />
        <mxCell id="1" parent="0" />
        <mxCell id="1RY9OHV8Dx5hhQ0rE-U_-4" style="edgeStyle=orthogonalEdgeStyle;rounded=0;orthogonalLoop=1;jettySize=auto;html=1;exitX=0.5;exitY=1;exitDx=0;exitDy=0;entryX=0.5;entryY=0;entryDx=0;entryDy=0;" edge="1" parent="1" source="1RY9OHV8Dx5hhQ0rE-U_-1" target="1RY9OHV8Dx5hhQ0rE-U_-2">
          <mxGeometry relative="1" as="geometry">
            <Array as="points">
              <mxPoint x="360" y="200" />
              <mxPoint x="200" y="200" />
              <mxPoint x="200" y="240" />
            </Array>
          </mxGeometry>
        </mxCell>
        <mxCell id="1RY9OHV8Dx5hhQ0rE-U_-5" style="edgeStyle=orthogonalEdgeStyle;rounded=0;orthogonalLoop=1;jettySize=auto;html=1;exitX=0.5;exitY=1;exitDx=0;exitDy=0;entryX=0.5;entryY=0;entryDx=0;entryDy=0;" edge="1" parent="1" source="1RY9OHV8Dx5hhQ0rE-U_-1" target="1RY9OHV8Dx5hhQ0rE-U_-3">
          <mxGeometry relative="1" as="geometry">
            <Array as="points">
              <mxPoint x="360" y="200" />
              <mxPoint x="520" y="200" />
              <mxPoint x="520" y="240" />
            </Array>
          </mxGeometry>
        </mxCell>
        <mxCell id="1RY9OHV8Dx5hhQ0rE-U_-1" value="周敬人&lt;br&gt;" style="rounded=1;whiteSpace=wrap;html=1;fillColor=#d5e8d4;strokeColor=#82b366;" vertex="1" parent="1">
          <mxGeometry x="300" y="100" width="120" height="60" as="geometry" />
        </mxCell>
        <mxCell id="1RY9OHV8Dx5hhQ0rE-U_-12" style="edgeStyle=orthogonalEdgeStyle;rounded=0;orthogonalLoop=1;jettySize=auto;html=1;exitX=0.5;exitY=1;exitDx=0;exitDy=0;entryX=0.5;entryY=0;entryDx=0;entryDy=0;" edge="1" parent="1" source="1RY9OHV8Dx5hhQ0rE-U_-2" target="1RY9OHV8Dx5hhQ0rE-U_-8">
          <mxGeometry relative="1" as="geometry">
            <Array as="points">
              <mxPoint x="200" y="340" />
              <mxPoint x="120" y="340" />
            </Array>
          </mxGeometry>
        </mxCell>
        <mxCell id="1RY9OHV8Dx5hhQ0rE-U_-13" style="edgeStyle=orthogonalEdgeStyle;rounded=0;orthogonalLoop=1;jettySize=auto;html=1;exitX=0.5;exitY=1;exitDx=0;exitDy=0;entryX=0.5;entryY=0;entryDx=0;entryDy=0;" edge="1" parent="1" source="1RY9OHV8Dx5hhQ0rE-U_-2" target="1RY9OHV8Dx5hhQ0rE-U_-9">
          <mxGeometry relative="1" as="geometry">
            <Array as="points">
              <mxPoint x="200" y="340" />
              <mxPoint x="280" y="340" />
            </Array>
          </mxGeometry>
        </mxCell>
        <mxCell id="1RY9OHV8Dx5hhQ0rE-U_-2" value="周群人&lt;br&gt;" style="rounded=1;whiteSpace=wrap;html=1;fillColor=#d5e8d4;strokeColor=#82b366;" vertex="1" parent="1">
          <mxGeometry x="140" y="240" width="120" height="60" as="geometry" />
        </mxCell>
        <mxCell id="1RY9OHV8Dx5hhQ0rE-U_-14" style="edgeStyle=orthogonalEdgeStyle;rounded=0;orthogonalLoop=1;jettySize=auto;html=1;exitX=0.5;exitY=1;exitDx=0;exitDy=0;entryX=0.5;entryY=0;entryDx=0;entryDy=0;" edge="1" parent="1" source="1RY9OHV8Dx5hhQ0rE-U_-3" target="1RY9OHV8Dx5hhQ0rE-U_-10">
          <mxGeometry relative="1" as="geometry" />
        </mxCell>
        <mxCell id="1RY9OHV8Dx5hhQ0rE-U_-15" style="edgeStyle=orthogonalEdgeStyle;rounded=0;orthogonalLoop=1;jettySize=auto;html=1;exitX=0.5;exitY=1;exitDx=0;exitDy=0;entryX=0.5;entryY=0;entryDx=0;entryDy=0;" edge="1" parent="1" source="1RY9OHV8Dx5hhQ0rE-U_-3" target="1RY9OHV8Dx5hhQ0rE-U_-11">
          <mxGeometry relative="1" as="geometry" />
        </mxCell>
        <mxCell id="1RY9OHV8Dx5hhQ0rE-U_-3" value="王一霖&lt;br&gt;" style="rounded=1;whiteSpace=wrap;html=1;fillColor=#d5e8d4;strokeColor=#82b366;" vertex="1" parent="1">
          <mxGeometry x="460" y="240" width="120" height="60" as="geometry" />
        </mxCell>
        <mxCell id="1RY9OHV8Dx5hhQ0rE-U_-6" value="" style="rounded=1;whiteSpace=wrap;html=1;fillColor=#d5e8d4;strokeColor=#82b366;" vertex="1" parent="1">
          <mxGeometry x="10" y="5" width="30" height="20" as="geometry" />
        </mxCell>
        <mxCell id="1RY9OHV8Dx5hhQ0rE-U_-7" value="" style="rounded=1;whiteSpace=wrap;html=1;fillColor=#647687;fontColor=#ffffff;strokeColor=#314354;" vertex="1" parent="1">
          <mxGeometry x="10" y="35" width="30" height="20" as="geometry" />
        </mxCell>
        <mxCell id="1RY9OHV8Dx5hhQ0rE-U_-33" style="edgeStyle=orthogonalEdgeStyle;rounded=0;orthogonalLoop=1;jettySize=auto;html=1;exitX=0.5;exitY=1;exitDx=0;exitDy=0;" edge="1" parent="1" source="1RY9OHV8Dx5hhQ0rE-U_-8">
          <mxGeometry relative="1" as="geometry">
            <mxPoint x="-560" y="650" as="targetPoint" />
          </mxGeometry>
        </mxCell>
        <mxCell id="1RY9OHV8Dx5hhQ0rE-U_-8" value="赵继辉&lt;br&gt;" style="rounded=1;whiteSpace=wrap;html=1;fillColor=#647687;strokeColor=#314354;fontColor=#ffffff;" vertex="1" parent="1">
          <mxGeometry x="60" y="380" width="120" height="60" as="geometry" />
        </mxCell>
        <mxCell id="1RY9OHV8Dx5hhQ0rE-U_-46" style="edgeStyle=orthogonalEdgeStyle;rounded=0;orthogonalLoop=1;jettySize=auto;html=1;exitX=0.5;exitY=1;exitDx=0;exitDy=0;" edge="1" parent="1" source="1RY9OHV8Dx5hhQ0rE-U_-9">
          <mxGeometry relative="1" as="geometry">
            <mxPoint x="60" y="650" as="targetPoint" />
            <Array as="points">
              <mxPoint x="280" y="570" />
              <mxPoint x="60" y="570" />
            </Array>
          </mxGeometry>
        </mxCell>
        <mxCell id="1RY9OHV8Dx5hhQ0rE-U_-9" value="周敬人&lt;br&gt;" style="rounded=1;whiteSpace=wrap;html=1;fillColor=#647687;strokeColor=#314354;fontColor=#ffffff;" vertex="1" parent="1">
          <mxGeometry x="220" y="380" width="120" height="60" as="geometry" />
        </mxCell>
        <mxCell id="1RY9OHV8Dx5hhQ0rE-U_-60" style="edgeStyle=orthogonalEdgeStyle;rounded=0;orthogonalLoop=1;jettySize=auto;html=1;exitX=0.5;exitY=1;exitDx=0;exitDy=0;" edge="1" parent="1" source="1RY9OHV8Dx5hhQ0rE-U_-10">
          <mxGeometry relative="1" as="geometry">
            <mxPoint x="700" y="660" as="targetPoint" />
          </mxGeometry>
        </mxCell>
        <mxCell id="1RY9OHV8Dx5hhQ0rE-U_-10" value="影影&lt;br&gt;" style="rounded=1;whiteSpace=wrap;html=1;fillColor=#647687;strokeColor=#314354;fontColor=#ffffff;" vertex="1" parent="1">
          <mxGeometry x="380" y="380" width="120" height="60" as="geometry" />
        </mxCell>
        <mxCell id="1RY9OHV8Dx5hhQ0rE-U_-11" value="周敬人&lt;br&gt;" style="rounded=1;whiteSpace=wrap;html=1;fillColor=#647687;strokeColor=#314354;fontColor=#ffffff;" vertex="1" parent="1">
          <mxGeometry x="540" y="380" width="120" height="60" as="geometry" />
        </mxCell>
        <mxCell id="1RY9OHV8Dx5hhQ0rE-U_-19" style="edgeStyle=orthogonalEdgeStyle;rounded=0;orthogonalLoop=1;jettySize=auto;html=1;exitX=0.5;exitY=1;exitDx=0;exitDy=0;entryX=0.5;entryY=0;entryDx=0;entryDy=0;" edge="1" parent="1" target="1RY9OHV8Dx5hhQ0rE-U_-24">
          <mxGeometry relative="1" as="geometry">
            <Array as="points">
              <mxPoint x="-560" y="690" />
              <mxPoint x="-720" y="690" />
              <mxPoint x="-720" y="730" />
            </Array>
            <mxPoint x="-559.9999999999998" y="650" as="sourcePoint" />
          </mxGeometry>
        </mxCell>
        <mxCell id="1RY9OHV8Dx5hhQ0rE-U_-20" style="edgeStyle=orthogonalEdgeStyle;rounded=0;orthogonalLoop=1;jettySize=auto;html=1;exitX=0.5;exitY=1;exitDx=0;exitDy=0;entryX=0.5;entryY=0;entryDx=0;entryDy=0;" edge="1" parent="1" target="1RY9OHV8Dx5hhQ0rE-U_-27">
          <mxGeometry relative="1" as="geometry">
            <Array as="points">
              <mxPoint x="-560" y="690" />
              <mxPoint x="-400" y="690" />
              <mxPoint x="-400" y="730" />
            </Array>
            <mxPoint x="-559.9999999999998" y="650" as="sourcePoint" />
          </mxGeometry>
        </mxCell>
        <mxCell id="1RY9OHV8Dx5hhQ0rE-U_-22" style="edgeStyle=orthogonalEdgeStyle;rounded=0;orthogonalLoop=1;jettySize=auto;html=1;exitX=0.5;exitY=1;exitDx=0;exitDy=0;entryX=0.5;entryY=0;entryDx=0;entryDy=0;" edge="1" parent="1" source="1RY9OHV8Dx5hhQ0rE-U_-24" target="1RY9OHV8Dx5hhQ0rE-U_-28">
          <mxGeometry relative="1" as="geometry">
            <Array as="points">
              <mxPoint x="-720" y="830" />
              <mxPoint x="-800" y="830" />
            </Array>
          </mxGeometry>
        </mxCell>
        <mxCell id="1RY9OHV8Dx5hhQ0rE-U_-23" style="edgeStyle=orthogonalEdgeStyle;rounded=0;orthogonalLoop=1;jettySize=auto;html=1;exitX=0.5;exitY=1;exitDx=0;exitDy=0;entryX=0.5;entryY=0;entryDx=0;entryDy=0;" edge="1" parent="1" source="1RY9OHV8Dx5hhQ0rE-U_-24" target="1RY9OHV8Dx5hhQ0rE-U_-29">
          <mxGeometry relative="1" as="geometry">
            <Array as="points">
              <mxPoint x="-720" y="830" />
              <mxPoint x="-640" y="830" />
            </Array>
          </mxGeometry>
        </mxCell>
        <mxCell id="1RY9OHV8Dx5hhQ0rE-U_-24" value="王丽杰&lt;br&gt;" style="rounded=1;whiteSpace=wrap;html=1;fillColor=#d5e8d4;strokeColor=#82b366;" vertex="1" parent="1">
          <mxGeometry x="-780" y="730" width="120" height="60" as="geometry" />
        </mxCell>
        <mxCell id="1RY9OHV8Dx5hhQ0rE-U_-25" style="edgeStyle=orthogonalEdgeStyle;rounded=0;orthogonalLoop=1;jettySize=auto;html=1;exitX=0.5;exitY=1;exitDx=0;exitDy=0;entryX=0.5;entryY=0;entryDx=0;entryDy=0;" edge="1" parent="1" source="1RY9OHV8Dx5hhQ0rE-U_-27">
          <mxGeometry relative="1" as="geometry">
            <mxPoint x="-480" y="870" as="targetPoint" />
          </mxGeometry>
        </mxCell>
        <mxCell id="1RY9OHV8Dx5hhQ0rE-U_-26" style="edgeStyle=orthogonalEdgeStyle;rounded=0;orthogonalLoop=1;jettySize=auto;html=1;exitX=0.5;exitY=1;exitDx=0;exitDy=0;entryX=0.5;entryY=0;entryDx=0;entryDy=0;" edge="1" parent="1" source="1RY9OHV8Dx5hhQ0rE-U_-27">
          <mxGeometry relative="1" as="geometry">
            <mxPoint x="-320" y="870" as="targetPoint" />
          </mxGeometry>
        </mxCell>
        <mxCell id="1RY9OHV8Dx5hhQ0rE-U_-27" value="轩轩姥&lt;br&gt;" style="rounded=1;whiteSpace=wrap;html=1;fillColor=#647687;strokeColor=#314354;fontColor=#ffffff;" vertex="1" parent="1">
          <mxGeometry x="-460" y="730" width="120" height="60" as="geometry" />
        </mxCell>
        <mxCell id="1RY9OHV8Dx5hhQ0rE-U_-28" value="莹莹&lt;br&gt;" style="rounded=1;whiteSpace=wrap;html=1;fillColor=#647687;strokeColor=#314354;fontColor=#ffffff;" vertex="1" parent="1">
          <mxGeometry x="-860" y="870" width="120" height="60" as="geometry" />
        </mxCell>
        <mxCell id="1RY9OHV8Dx5hhQ0rE-U_-29" value="周群人&lt;br&gt;" style="rounded=1;whiteSpace=wrap;html=1;fillColor=#647687;strokeColor=#314354;fontColor=#ffffff;" vertex="1" parent="1">
          <mxGeometry x="-700" y="870" width="120" height="60" as="geometry" />
        </mxCell>
        <mxCell id="1RY9OHV8Dx5hhQ0rE-U_-34" style="edgeStyle=orthogonalEdgeStyle;rounded=0;orthogonalLoop=1;jettySize=auto;html=1;exitX=0.5;exitY=1;exitDx=0;exitDy=0;entryX=0.5;entryY=0;entryDx=0;entryDy=0;" edge="1" parent="1" target="1RY9OHV8Dx5hhQ0rE-U_-38">
          <mxGeometry relative="1" as="geometry">
            <Array as="points">
              <mxPoint x="60" y="690" />
              <mxPoint x="-100" y="690" />
              <mxPoint x="-100" y="730" />
            </Array>
            <mxPoint x="60.00000000000023" y="650" as="sourcePoint" />
          </mxGeometry>
        </mxCell>
        <mxCell id="1RY9OHV8Dx5hhQ0rE-U_-35" style="edgeStyle=orthogonalEdgeStyle;rounded=0;orthogonalLoop=1;jettySize=auto;html=1;exitX=0.5;exitY=1;exitDx=0;exitDy=0;entryX=0.5;entryY=0;entryDx=0;entryDy=0;" edge="1" parent="1" target="1RY9OHV8Dx5hhQ0rE-U_-41">
          <mxGeometry relative="1" as="geometry">
            <Array as="points">
              <mxPoint x="60" y="690" />
              <mxPoint x="220" y="690" />
              <mxPoint x="220" y="730" />
            </Array>
            <mxPoint x="60.00000000000023" y="650" as="sourcePoint" />
          </mxGeometry>
        </mxCell>
        <mxCell id="1RY9OHV8Dx5hhQ0rE-U_-36" style="edgeStyle=orthogonalEdgeStyle;rounded=0;orthogonalLoop=1;jettySize=auto;html=1;exitX=0.5;exitY=1;exitDx=0;exitDy=0;entryX=0.5;entryY=0;entryDx=0;entryDy=0;" edge="1" parent="1" source="1RY9OHV8Dx5hhQ0rE-U_-38" target="1RY9OHV8Dx5hhQ0rE-U_-42">
          <mxGeometry relative="1" as="geometry">
            <Array as="points">
              <mxPoint x="-100" y="830" />
              <mxPoint x="-180" y="830" />
            </Array>
          </mxGeometry>
        </mxCell>
        <mxCell id="1RY9OHV8Dx5hhQ0rE-U_-37" style="edgeStyle=orthogonalEdgeStyle;rounded=0;orthogonalLoop=1;jettySize=auto;html=1;exitX=0.5;exitY=1;exitDx=0;exitDy=0;entryX=0.5;entryY=0;entryDx=0;entryDy=0;" edge="1" parent="1" source="1RY9OHV8Dx5hhQ0rE-U_-38">
          <mxGeometry relative="1" as="geometry">
            <Array as="points">
              <mxPoint x="-100" y="830" />
              <mxPoint x="-20" y="830" />
            </Array>
            <mxPoint x="-20" y="870" as="targetPoint" />
          </mxGeometry>
        </mxCell>
        <mxCell id="1RY9OHV8Dx5hhQ0rE-U_-38" value="周敬人&lt;br&gt;" style="rounded=1;whiteSpace=wrap;html=1;fillColor=#647687;strokeColor=#314354;fontColor=#ffffff;" vertex="1" parent="1">
          <mxGeometry x="-160" y="730" width="120" height="60" as="geometry" />
        </mxCell>
        <mxCell id="1RY9OHV8Dx5hhQ0rE-U_-39" style="edgeStyle=orthogonalEdgeStyle;rounded=0;orthogonalLoop=1;jettySize=auto;html=1;exitX=0.5;exitY=1;exitDx=0;exitDy=0;entryX=0.5;entryY=0;entryDx=0;entryDy=0;" edge="1" parent="1" source="1RY9OHV8Dx5hhQ0rE-U_-41">
          <mxGeometry relative="1" as="geometry">
            <mxPoint x="140" y="870" as="targetPoint" />
          </mxGeometry>
        </mxCell>
        <mxCell id="1RY9OHV8Dx5hhQ0rE-U_-40" style="edgeStyle=orthogonalEdgeStyle;rounded=0;orthogonalLoop=1;jettySize=auto;html=1;exitX=0.5;exitY=1;exitDx=0;exitDy=0;entryX=0.5;entryY=0;entryDx=0;entryDy=0;" edge="1" parent="1" source="1RY9OHV8Dx5hhQ0rE-U_-41">
          <mxGeometry relative="1" as="geometry">
            <mxPoint x="300" y="870" as="targetPoint" />
          </mxGeometry>
        </mxCell>
        <mxCell id="1RY9OHV8Dx5hhQ0rE-U_-41" value="周敬人&lt;br style=&quot;border-color: var(--border-color);&quot;&gt;" style="rounded=1;whiteSpace=wrap;html=1;fillColor=#647687;strokeColor=#314354;fontColor=#ffffff;" vertex="1" parent="1">
          <mxGeometry x="160" y="730" width="120" height="60" as="geometry" />
        </mxCell>
        <mxCell id="1RY9OHV8Dx5hhQ0rE-U_-42" value="张志远&lt;br&gt;" style="rounded=1;whiteSpace=wrap;html=1;fillColor=#d5e8d4;strokeColor=#82b366;" vertex="1" parent="1">
          <mxGeometry x="-240" y="870" width="120" height="60" as="geometry" />
        </mxCell>
        <mxCell id="1RY9OHV8Dx5hhQ0rE-U_-48" style="edgeStyle=orthogonalEdgeStyle;rounded=0;orthogonalLoop=1;jettySize=auto;html=1;exitX=0.5;exitY=1;exitDx=0;exitDy=0;entryX=0.5;entryY=0;entryDx=0;entryDy=0;" edge="1" parent="1" target="1RY9OHV8Dx5hhQ0rE-U_-52">
          <mxGeometry relative="1" as="geometry">
            <Array as="points">
              <mxPoint x="700" y="690" />
              <mxPoint x="540" y="690" />
              <mxPoint x="540" y="730" />
            </Array>
            <mxPoint x="700.0000000000002" y="650" as="sourcePoint" />
          </mxGeometry>
        </mxCell>
        <mxCell id="1RY9OHV8Dx5hhQ0rE-U_-49" style="edgeStyle=orthogonalEdgeStyle;rounded=0;orthogonalLoop=1;jettySize=auto;html=1;exitX=0.5;exitY=1;exitDx=0;exitDy=0;entryX=0.5;entryY=0;entryDx=0;entryDy=0;" edge="1" parent="1">
          <mxGeometry relative="1" as="geometry">
            <Array as="points">
              <mxPoint x="700" y="690" />
              <mxPoint x="860" y="690" />
              <mxPoint x="860" y="730" />
            </Array>
            <mxPoint x="700.0000000000002" y="650" as="sourcePoint" />
            <mxPoint x="860" y="730" as="targetPoint" />
          </mxGeometry>
        </mxCell>
        <mxCell id="1RY9OHV8Dx5hhQ0rE-U_-50" style="edgeStyle=orthogonalEdgeStyle;rounded=0;orthogonalLoop=1;jettySize=auto;html=1;exitX=0.5;exitY=1;exitDx=0;exitDy=0;entryX=0.5;entryY=0;entryDx=0;entryDy=0;" edge="1" parent="1" source="1RY9OHV8Dx5hhQ0rE-U_-52" target="1RY9OHV8Dx5hhQ0rE-U_-56">
          <mxGeometry relative="1" as="geometry">
            <Array as="points">
              <mxPoint x="540" y="830" />
              <mxPoint x="460" y="830" />
            </Array>
          </mxGeometry>
        </mxCell>
        <mxCell id="1RY9OHV8Dx5hhQ0rE-U_-51" style="edgeStyle=orthogonalEdgeStyle;rounded=0;orthogonalLoop=1;jettySize=auto;html=1;exitX=0.5;exitY=1;exitDx=0;exitDy=0;entryX=0.5;entryY=0;entryDx=0;entryDy=0;" edge="1" parent="1" source="1RY9OHV8Dx5hhQ0rE-U_-52" target="1RY9OHV8Dx5hhQ0rE-U_-57">
          <mxGeometry relative="1" as="geometry">
            <Array as="points">
              <mxPoint x="540" y="830" />
              <mxPoint x="620" y="830" />
            </Array>
          </mxGeometry>
        </mxCell>
        <mxCell id="1RY9OHV8Dx5hhQ0rE-U_-52" value="周占伟&lt;br&gt;" style="rounded=1;whiteSpace=wrap;html=1;fillColor=#d5e8d4;strokeColor=#82b366;" vertex="1" parent="1">
          <mxGeometry x="480" y="730" width="120" height="60" as="geometry" />
        </mxCell>
        <mxCell id="1RY9OHV8Dx5hhQ0rE-U_-56" value="周文茹&lt;br&gt;" style="rounded=1;whiteSpace=wrap;html=1;fillColor=#d5e8d4;strokeColor=#82b366;" vertex="1" parent="1">
          <mxGeometry x="400" y="870" width="120" height="60" as="geometry" />
        </mxCell>
        <mxCell id="1RY9OHV8Dx5hhQ0rE-U_-57" value="周敬人&lt;br&gt;" style="rounded=1;whiteSpace=wrap;html=1;fillColor=#647687;strokeColor=#314354;fontColor=#ffffff;" vertex="1" parent="1">
          <mxGeometry x="560" y="870" width="120" height="60" as="geometry" />
        </mxCell>
        <mxCell id="1RY9OHV8Dx5hhQ0rE-U_-61" value="主账号" style="text;html=1;align=center;verticalAlign=middle;resizable=0;points=[];autosize=1;strokeColor=none;fillColor=none;" vertex="1" parent="1">
          <mxGeometry x="50" width="60" height="30" as="geometry" />
        </mxCell>
        <mxCell id="1RY9OHV8Dx5hhQ0rE-U_-62" value="子账号" style="text;html=1;align=center;verticalAlign=middle;resizable=0;points=[];autosize=1;strokeColor=none;fillColor=none;" vertex="1" parent="1">
          <mxGeometry x="50" y="30" width="60" height="30" as="geometry" />
        </mxCell>
      </root>
    </mxGraphModel>
  </diagram>
</mxfile>
